<svg preserveAspectRatio="none" width="100%" height="100%" overflow="visible" style="display: block;" viewBox="0 0 43.5076 43.4945" fill="none" xmlns="http://www.w3.org/2000/svg">
<path id="Vector" d="M36.0076 25.5C36.0114 26.1116 35.8256 26.7093 35.4757 27.211C35.1259 27.7126 34.6291 28.0935 34.0539 28.3013L24.3695 31.8638L20.807 41.5406C20.596 42.1138 20.2143 42.6084 19.7134 42.9578C19.2125 43.3072 18.6165 43.4945 18.0057 43.4945C17.395 43.4945 16.799 43.3072 16.2981 42.9578C15.7972 42.6084 15.4155 42.1138 15.2045 41.5406L11.6326 31.875L1.95387 28.3125C1.38074 28.1015 0.88611 27.7198 0.536721 27.2189C0.187332 26.718 0 26.122 0 25.5112C0 24.9005 0.187332 24.3045 0.536721 23.8036C0.88611 23.3027 1.38074 22.921 1.95387 22.71L11.6382 19.1475L15.2007 9.47062C15.4117 8.89749 15.7934 8.40286 16.2943 8.05347C16.7952 7.70408 17.3913 7.51675 18.002 7.51675C18.6127 7.51675 19.2088 7.70408 19.7097 8.05347C20.2106 8.40286 20.5923 8.89749 20.8032 9.47062L24.3657 19.155L34.0426 22.7175C34.617 22.9223 35.114 23.2995 35.4657 23.7976C35.8175 24.2957 36.0067 24.8903 36.0076 25.5ZM25.5076 7.5H28.5076V10.5C28.5076 10.8978 28.6657 11.2794 28.947 11.5607C29.2283 11.842 29.6098 12 30.0076 12C30.4054 12 30.787 11.842 31.0683 11.5607C31.3496 11.2794 31.5076 10.8978 31.5076 10.5V7.5H34.5076C34.9054 7.5 35.287 7.34196 35.5683 7.06066C35.8496 6.77936 36.0076 6.39782 36.0076 6C36.0076 5.60218 35.8496 5.22064 35.5683 4.93934C35.287 4.65804 34.9054 4.5 34.5076 4.5H31.5076V1.5C31.5076 1.10218 31.3496 0.720644 31.0683 0.43934C30.787 0.158035 30.4054 0 30.0076 0C29.6098 0 29.2283 0.158035 28.947 0.43934C28.6657 0.720644 28.5076 1.10218 28.5076 1.5V4.5H25.5076C25.1098 4.5 24.7283 4.65804 24.447 4.93934C24.1657 5.22064 24.0076 5.60218 24.0076 6C24.0076 6.39782 24.1657 6.77936 24.447 7.06066C24.7283 7.34196 25.1098 7.5 25.5076 7.5ZM42.0076 13.5H40.5076V12C40.5076 11.6022 40.3496 11.2206 40.0683 10.9393C39.787 10.658 39.4054 10.5 39.0076 10.5C38.6098 10.5 38.2283 10.658 37.947 10.9393C37.6657 11.2206 37.5076 11.6022 37.5076 12V13.5H36.0076C35.6098 13.5 35.2283 13.658 34.947 13.9393C34.6657 14.2206 34.5076 14.6022 34.5076 15C34.5076 15.3978 34.6657 15.7794 34.947 16.0607C35.2283 16.342 35.6098 16.5 36.0076 16.5H37.5076V18C37.5076 18.3978 37.6657 18.7794 37.947 19.0607C38.2283 19.342 38.6098 19.5 39.0076 19.5C39.4054 19.5 39.787 19.342 40.0683 19.0607C40.3496 18.7794 40.5076 18.3978 40.5076 18V16.5H42.0076C42.4054 16.5 42.787 16.342 43.0683 16.0607C43.3496 15.7794 43.5076 15.3978 43.5076 15C43.5076 14.6022 43.3496 14.2206 43.0683 13.9393C42.787 13.658 42.4054 13.5 42.0076 13.5Z" fill="url(#paint0_linear_0_6)"/>
<defs>
<linearGradient id="paint0_linear_0_6" x1="0" y1="0" x2="66.8968" y2="34.0807" gradientUnits="userSpaceOnUse">
<stop stop-color="#90A6EE"/>
<stop offset="0.85" stop-color="#825CDE"/>
</linearGradient>
</defs>
</svg>
