<svg preserveAspectRatio="none" width="100%" height="100%" overflow="visible" style="display: block;" viewBox="0 0 42 36" fill="none" xmlns="http://www.w3.org/2000/svg">
<path id="Vector" d="M39 0H28.5C26.9087 0 25.3826 0.632141 24.2574 1.75736C23.1321 2.88258 22.5 4.4087 22.5 6V22.5C22.5 22.8978 22.342 23.2794 22.0607 23.5607C21.7794 23.842 21.3978 24 21 24C20.6022 24 20.2206 23.842 19.9393 23.5607C19.658 23.2794 19.5 22.8978 19.5 22.5V6C19.5 4.4087 18.8679 2.88258 17.7426 1.75736C16.6174 0.632141 15.0913 0 13.5 0H3C2.20435 0 1.44129 0.31607 0.87868 0.87868C0.31607 1.44129 0 2.20435 0 3V27C0 27.7956 0.31607 28.5587 0.87868 29.1213C1.44129 29.6839 2.20435 30 3 30H15C16.1935 30 17.3381 30.4741 18.182 31.318C19.0259 32.1619 19.5 33.3065 19.5 34.5C19.5 34.8978 19.658 35.2794 19.9393 35.5607C20.2206 35.842 20.6022 36 21 36C21.3978 36 21.7794 35.842 22.0607 35.5607C22.342 35.2794 22.5 34.8978 22.5 34.5C22.5 33.3065 22.9741 32.1619 23.818 31.318C24.6619 30.4741 25.8065 30 27 30H39C39.7956 30 40.5587 29.6839 41.1213 29.1213C41.6839 28.5587 42 27.7956 42 27V3C42 2.20435 41.6839 1.44129 41.1213 0.87868C40.5587 0.31607 39.7956 0 39 0ZM36 22.5H28.5C28.1022 22.5 27.7206 22.342 27.4393 22.0607C27.158 21.7794 27 21.3978 27 21C27 20.6022 27.158 20.2206 27.4393 19.9393C27.7206 19.658 28.1022 19.5 28.5 19.5H36C36.3978 19.5 36.7794 19.658 37.0607 19.9393C37.342 20.2206 37.5 20.6022 37.5 21C37.5 21.3978 37.342 21.7794 37.0607 22.0607C36.7794 22.342 36.3978 22.5 36 22.5ZM36 16.5H28.5C28.1022 16.5 27.7206 16.342 27.4393 16.0607C27.158 15.7794 27 15.3978 27 15C27 14.6022 27.158 14.2206 27.4393 13.9393C27.7206 13.658 28.1022 13.5 28.5 13.5H36C36.3978 13.5 36.7794 13.658 37.0607 13.9393C37.342 14.2206 37.5 14.6022 37.5 15C37.5 15.3978 37.342 15.7794 37.0607 16.0607C36.7794 16.342 36.3978 16.5 36 16.5ZM36 10.5H28.5C28.1022 10.5 27.7206 10.342 27.4393 10.0607C27.158 9.77936 27 9.39782 27 9C27 8.60218 27.158 8.22064 27.4393 7.93934C27.7206 7.65804 28.1022 7.5 28.5 7.5H36C36.3978 7.5 36.7794 7.65804 37.0607 7.93934C37.342 8.22064 37.5 8.60218 37.5 9C37.5 9.39782 37.342 9.77936 37.0607 10.0607C36.7794 10.342 36.3978 10.5 36 10.5Z" fill="url(#paint0_linear_0_6)"/>
<defs>
<linearGradient id="paint0_linear_0_6" x1="0" y1="0" x2="56.4805" y2="28.5344" gradientUnits="userSpaceOnUse">
<stop stop-color="#90A6EE"/>
<stop offset="1" stop-color="#3661ED"/>
</linearGradient>
</defs>
</svg>
