<svg preserveAspectRatio="none" width="100%" height="100%" overflow="visible" style="display: block;" viewBox="0 0 1254.87 283" fill="none" xmlns="http://www.w3.org/2000/svg">
<g id="Petavue Logo">
<path id="Vector" d="M87.7021 217.167C86.075 216.871 84.3942 217.248 83.0615 218.249L82.7998 218.457L8.49609 281.149C5.31915 283.829 0.500105 281.523 0.5 277.218V236.053C0.5 235.447 0.731314 234.872 1.13281 234.449L1.31543 234.277L40 201.726V201.9L40.8223 201.205L57.8057 186.877C68.4741 177.876 82.019 174.72 94.5645 177.004C98.3144 177.687 102.2 178.048 106.2 178.048C142.776 178.048 172.399 147.462 172.399 109.766C172.399 72.0696 142.776 41.4837 106.2 41.4835C69.6245 41.4835 40.0002 72.0695 40 109.766V141.83C39.9999 145.034 38.6033 148.062 36.2041 150.081L4.08496 177.109C2.67047 178.299 0.500229 177.287 0.5 175.332V109.766C0.500153 49.5157 47.8385 0.700302 106.2 0.700302C164.562 0.700515 211.899 49.5158 211.899 109.766C211.899 170.016 164.562 218.832 106.2 218.832C99.8899 218.832 93.7085 218.261 87.7031 217.167H87.7021Z" stroke="var(--stroke-0, #D4D9EA)"/>
<g id="Petavue">
<path id="Vector_2" d="M1192.04 92.0301C1204.7 92.0301 1215.72 94.7202 1225.09 100.119C1234.61 105.511 1241.83 112.736 1246.76 121.791H1246.76C1251.84 130.836 1254.37 140.832 1254.37 151.766C1254.37 156.35 1254.06 160.317 1253.42 163.66L1253.34 164.066H1149.84C1150.39 178.513 1154.53 189.288 1162.17 196.477H1162.17C1170.1 203.78 1179.73 207.434 1191.1 207.434C1201.39 207.434 1209.94 204.861 1216.76 199.746C1223.73 194.473 1227.99 187.505 1229.54 178.818L1229.62 178.406H1253.52L1253.42 178.992C1251.83 188.039 1248.26 196.14 1242.7 203.285L1242.7 203.284C1237.3 210.433 1230.23 215.989 1221.51 219.953C1212.78 223.92 1202.96 225.898 1192.04 225.898C1179.54 225.898 1168.44 223.206 1158.76 217.81C1149.07 212.414 1141.46 204.715 1135.91 194.724L1135.9 194.717C1130.51 184.563 1127.82 172.679 1127.82 159.082C1127.82 145.485 1130.51 133.601 1135.9 123.447L1135.9 123.442C1141.45 113.294 1149.07 105.514 1158.76 100.117C1168.44 94.721 1179.54 92.0301 1192.04 92.0301ZM1192.04 110.494C1180.35 110.494 1170.57 114.152 1162.64 121.454L1162.64 121.458L1162.64 121.457C1154.84 128.491 1150.56 138.873 1149.85 152.682H1231.68C1232.08 143.363 1230.5 135.596 1227 129.354C1223.43 122.986 1218.55 118.26 1212.35 115.161C1206.13 112.051 1199.36 110.494 1192.04 110.494Z" stroke="var(--stroke-0, #D4D9EA)"/>
<path id="Vector_3" d="M1003.55 93.6821V167.578C1003.55 180.393 1006.83 190.245 1013.33 197.205L1013.94 197.832C1020.38 204.221 1029 207.434 1039.87 207.434C1051.55 207.434 1060.85 203.701 1067.82 196.264C1074.79 188.678 1078.31 177.648 1078.31 163.094V93.6821H1100.79V224.246H1078.31V196.296C1074.84 205.564 1069.2 212.815 1061.39 218.026L1061.39 218.027C1052.96 223.594 1043.1 226.37 1031.85 226.37C1016.78 226.37 1004.53 221.528 995.142 211.822L995.139 211.819C985.741 201.943 981.078 187.878 981.078 169.702V93.6821H1003.55Z" stroke="var(--stroke-0, #D4D9EA)"/>
<path id="Vector_4" d="M860.545 93.6821L860.668 94.0043L900.789 199.44L940.444 94.0063L940.566 93.6821H964.772L964.506 94.3647L913.766 223.928L913.641 224.246H887.471L887.347 223.928L836.606 94.3647L836.34 93.6821H860.545Z" stroke="var(--stroke-0, #D4D9EA)"/>
<path id="Vector_5" d="M740.128 90.8501C751.223 90.8501 760.762 93.4667 768.723 98.7212C775.955 103.494 781.284 109.784 784.703 117.582V92.5024H818.744V224.246H784.703V198.93C781.285 206.741 775.957 213.107 768.729 218.023L768.723 218.027C760.762 223.281 751.222 225.898 740.128 225.898C729.03 225.898 719.026 223.201 710.132 217.801C701.234 212.399 694.25 204.615 689.177 194.469L689.172 194.461C684.257 184.155 681.808 172.121 681.808 158.374C681.808 144.627 684.257 132.671 689.174 122.52L689.175 122.517C694.247 112.214 701.232 104.351 710.132 98.9468C719.026 93.5467 729.03 90.8501 740.128 90.8501ZM750.512 120.878C740.248 120.878 732.048 124.216 725.862 130.867C719.677 137.516 716.556 146.664 716.556 158.374C716.556 170.081 719.675 179.229 725.858 185.877L726.444 186.476C732.558 192.572 740.565 195.634 750.512 195.634C760.456 195.634 768.582 192.299 774.93 185.641L775.531 184.996C781.634 178.26 784.703 169.402 784.703 158.374C784.703 146.83 781.43 137.763 774.934 131.112L774.926 131.103C768.577 124.289 760.453 120.878 750.512 120.878Z" stroke="var(--stroke-0, #D4D9EA)"/>
<path id="Vector_6" d="M635.972 60.1701V92.5022H665.235V121.586H635.972V178.197C635.972 184.452 637.227 188.687 639.601 191.061C641.978 193.438 646.06 194.69 651.991 194.69H665.472V224.246H647.508C632.8 224.246 621.413 220.687 613.425 213.497L613.421 213.494C605.562 206.277 601.695 194.306 601.695 177.726V121.586H583.523V92.5022H601.695V60.1701H635.972Z" stroke="var(--stroke-0, #D4D9EA)"/>
<path id="Vector_7" d="M507.302 90.8501C520.273 90.8501 531.609 93.5395 541.293 98.937H541.292C551.123 104.329 558.663 111.787 563.902 121.308C569.3 130.675 571.993 141.384 571.993 153.418C571.993 156.761 571.595 160.568 570.805 164.837L570.729 165.246H475.022C475.563 176.55 478.676 184.805 484.281 190.107C490.002 195.518 497.113 198.23 505.649 198.23C513.275 198.23 519.536 196.363 524.466 192.666L524.472 192.662C529.561 188.96 532.799 183.954 534.189 177.619L534.275 177.226H570.445L570.333 177.819C568.588 187.022 564.857 195.277 559.143 202.578C553.426 209.883 546.044 215.596 537.009 219.717L537.008 219.716C528.125 223.84 518.22 225.898 507.302 225.898C494.486 225.898 483.074 223.208 473.08 217.814L473.075 217.811C463.079 212.258 455.302 204.401 449.751 194.249C444.197 184.094 441.43 172.129 441.43 158.374C441.43 144.618 444.197 132.654 449.751 122.499C455.302 112.19 463.08 104.331 473.08 98.9341C483.074 93.5404 494.486 90.8501 507.302 90.8501ZM507.302 118.046C498.445 118.046 491.015 120.761 484.979 126.178C479.069 131.483 475.735 139.27 475.032 149.614H537.499C537.862 139.256 535.054 131.475 529.151 126.178L529.146 126.174L529.485 125.806L529.146 126.173C523.268 120.759 515.998 118.046 507.302 118.046Z" stroke="var(--stroke-0, #D4D9EA)"/>
<path id="Vector_8" d="M367.452 56.6301C387.189 56.6302 402.122 61.3664 412.161 70.9251C422.349 80.4761 427.423 93.4408 427.423 109.758C427.423 125.769 422.186 138.577 411.683 148.124C401.335 157.675 386.566 162.414 367.452 162.414H340.576V224.246H306.299V56.6301H367.452ZM340.576 134.746H363.912C373.605 134.746 380.781 132.634 385.531 128.497C390.268 124.372 392.675 118.158 392.675 109.758C392.675 101.511 390.421 95.2863 385.984 91.0022C381.559 86.7296 374.244 84.5345 363.912 84.5344H340.576V134.746Z" stroke="var(--stroke-0, #D4D9EA)"/>
</g>
</g>
</svg>
