<svg preserveAspectRatio="none" width="100%" height="100%" overflow="visible" style="display: block;" viewBox="0 0 24 24" fill="none" xmlns="http://www.w3.org/2000/svg">
<g id="Frame">
<path id="Vector" d="M12 14.2399C14.3047 14.2399 16.173 12.3543 16.173 10.0283C16.173 7.70221 14.3047 5.81658 12 5.81658C9.69531 5.81658 7.82699 7.70221 7.82699 10.0283V12.0206C7.82699 12.2286 7.7343 12.4256 7.57457 12.5571L5.53447 14.2364C5.42245 14.3286 5.25459 14.2481 5.25459 14.1022V10.0283C5.25459 6.26835 8.27461 3.22034 12 3.22034C15.7254 3.22034 18.7454 6.26835 18.7454 10.0283C18.7454 13.7882 15.7254 16.8362 12 16.8362C11.5973 16.8362 11.2028 16.8006 10.8195 16.7323C10.7182 16.7142 10.6138 16.7399 10.5342 16.8056L5.8147 20.7009C5.59074 20.8858 5.25459 20.7249 5.25459 20.4329V17.8751C5.25459 17.8231 5.27776 17.7739 5.31769 17.7411L7.82699 15.6755V15.6862L8.90571 14.7958C9.59082 14.2304 10.4608 14.032 11.2666 14.1755C11.503 14.2177 11.7478 14.2399 12 14.2399Z" fill="var(--fill-0, #3661ED)"/>
</g>
</svg>
